<?xml version="1.0" encoding="UTF-8" standalone="no"?>
<!-- Created with Inkscape (http://www.inkscape.org/) -->

<svg
   xmlns:dc="http://purl.org/dc/elements/1.1/"
   xmlns:cc="http://creativecommons.org/ns#"
   xmlns:rdf="http://www.w3.org/1999/02/22-rdf-syntax-ns#"
   xmlns:svg="http://www.w3.org/2000/svg"
   xmlns="http://www.w3.org/2000/svg"
   xmlns:sodipodi="http://sodipodi.sourceforge.net/DTD/sodipodi-0.dtd"
   xmlns:inkscape="http://www.inkscape.org/namespaces/inkscape"
   width="210mm"
   height="297mm"
   viewBox="0 0 210 297"
   version="1.1"
   id="svg8"
   inkscape:version="0.92.2 (5c3e80d, 2017-08-06)"
   sodipodi:docname="icon.svg">
  <defs
     id="defs2">
    <clipPath
       id="clipPath26"
       clipPathUnits="userSpaceOnUse">
      <path
         inkscape:connector-curvature="0"
         id="path24"
         d="M 0,792 H 612 V 0 H 0 Z" />
    </clipPath>
    <clipPath
       id="clipPath34"
       clipPathUnits="userSpaceOnUse">
      <path
         inkscape:connector-curvature="0"
         id="path32"
         d="M 44.6401,754.36 H 556.48 V 242.52 H 44.6401 Z" />
    </clipPath>
  </defs>
  <sodipodi:namedview
     id="base"
     pagecolor="#ffffff"
     bordercolor="#666666"
     borderopacity="1.0"
     inkscape:pageopacity="0.0"
     inkscape:pageshadow="2"
     inkscape:zoom="0.24748737"
     inkscape:cx="1341.386"
     inkscape:cy="1315.6829"
     inkscape:document-units="mm"
     inkscape:current-layer="layer3"
     showgrid="false"
     inkscape:window-width="1920"
     inkscape:window-height="1017"
     inkscape:window-x="1912"
     inkscape:window-y="-8"
     inkscape:window-maximized="1" />
  <metadata
     id="metadata5">
    <rdf:RDF>
      <cc:Work
         rdf:about="">
        <dc:format>image/svg+xml</dc:format>
        <dc:type
           rdf:resource="http://purl.org/dc/dcmitype/StillImage" />
        <dc:title />
      </cc:Work>
    </rdf:RDF>
  </metadata>
  <g
     inkscape:label="Layer 1"
     inkscape:groupmode="layer"
     id="layer1">
    <g
       id="g30"
       transform="matrix(0.35277777,0,0,-0.35277777,-0.95357571,313.33247)"
       inkscape:export-xdpi="96"
       inkscape:export-ydpi="96" />
    <g
       id="g46"
       transform="matrix(0.35277777,0,0,-0.35277777,79.855186,150.42239)"
       inkscape:export-xdpi="96"
       inkscape:export-ydpi="96" />
    <g
       id="g58"
       transform="matrix(0.35277777,0,0,-0.35277777,103.62408,120.12587)"
       inkscape:export-xdpi="96"
       inkscape:export-ydpi="96" />
  </g>
  <g
     inkscape:groupmode="layer"
     id="layer2"
     inkscape:label="Layer 2" />
  <g
     inkscape:groupmode="layer"
     id="layer3"
     inkscape:label="Layer 3">
    <g
       id="g4609"
       inkscape:export-xdpi="96"
       inkscape:export-ydpi="96">
      <circle
         inkscape:export-ydpi="96.03997"
         inkscape:export-xdpi="96.03997"
         r="72"
         cy="76.458115"
         cx="76.816208"
         id="path1000"
         style="fill:#6e9a02;fill-opacity:1;stroke:#505050;stroke-width:6;stroke-miterlimit:4;stroke-dasharray:none;stroke-opacity:1" />
      <path
         inkscape:export-ydpi="96.03997"
         inkscape:export-xdpi="96.03997"
         d="m 52.855593,112.73739 v 8.31568 C 41.217807,123.63223 33.988332,118.47532 33.107799,106.84247 32.722918,101.75083 32.977624,96.605568 32.501374,91.526627 31.803227,84.07596 30.197382,82.60911 22.67863,81.549013 v -9.683397 c 8.343547,-2.027061 9.458677,-3.303058 10.00513,-12.145433 0.277636,-4.499681 0.07408,-9.032169 0.432153,-13.521972 0.923219,-11.581694 6.862233,-15.9004 19.652191,-14.33583 v 8.587316 c -0.929217,0.07056 -1.793169,0.235303 -2.643716,0.18415 -4.610453,-0.277636 -6.42232,2.082447 -6.633634,6.466417 -0.280458,5.818363 -0.237419,11.761611 -1.506361,17.38771 -0.991658,4.399139 -3.76943,8.395053 -5.966883,13.019264 5.694539,4.097514 6.906683,11.257139 7.302147,18.725444 0.135114,2.550583 0.01588,5.114218 0.10795,7.668328 0.282222,7.8292 0.680156,8.19785 9.427986,8.83638"
         style="fill:#fdfefd;fill-opacity:1;fill-rule:evenodd;stroke:none;stroke-width:0.35277778"
         id="path44"
         inkscape:connector-curvature="0" />
      <g
         inkscape:export-ydpi="96.03997"
         inkscape:export-xdpi="96.03997"
         transform="matrix(0.35277777,0,0,-0.35277777,100.08767,121.6626)"
         id="g50">
        <path
           d="m 0,0 v 24.03 c 0.958,0.662 1.57,1.45 2.231,1.495 22.665,1.5 23.982,3.01 25.004,25.615 0.591,13.092 1.586,26.175 2.781,39.227 1.38,15.086 7.902,27.555 21.382,37.078 -21.663,16.785 -23.845,40.235 -24.144,64.347 -0.037,2.98 0.013,5.963 -0.028,8.943 -0.367,26.212 -1.286,27.238 -26.995,29.62 v 23.728 c 34.035,6.797 53.67,-7.693 56.097,-41.681 1.029,-14.42 0.487,-28.972 1.925,-43.337 2.067,-20.677 6.206,-24.297 27.333,-27 v -27.49 C 61.532,108.143 58.703,104.302 57.092,77.625 56.098,61.155 56.451,44.322 52.961,28.36 48.531,8.107 37.237,0.827 16.429,0.027 11.379,-0.168 6.315,0 0,0"
           style="fill:#fdfefd;fill-opacity:1;fill-rule:evenodd;stroke:none"
           id="path48"
           inkscape:connector-curvature="0" />
      </g>
      <g
         style="stroke-width:5.66929146;stroke-miterlimit:4;stroke-dasharray:none"
         inkscape:export-ydpi="96.03997"
         inkscape:export-xdpi="96.03997"
         transform="matrix(0.35277777,0,0,-0.35277777,54.858912,82.439847)"
         id="g54">
        <path
           d="m 0,0 c -10.462,-0.015 -17.22,6.38 -17.338,16.412 -0.118,9.873 6.719,16.708 16.911,16.903 C 8.608,33.49 17.392,25.44 17.56,16.83 17.728,8.242 9.142,0.012 0,0"
           style="fill:#fdfefd;fill-opacity:1;fill-rule:evenodd;stroke:none;stroke-width:5.66929146;stroke-miterlimit:4;stroke-dasharray:none"
           id="path52"
           inkscape:connector-curvature="0" />
      </g>
      <path
         inkscape:export-ydpi="96.03997"
         inkscape:export-xdpi="96.03997"
         d="m 76.624486,82.440867 c -3.643489,0.05997 -5.955242,-2.144889 -6.016978,-5.73793 -0.06209,-3.5941 2.192867,-5.945364 5.768622,-6.013098 3.60927,-0.06985 5.923139,2.157237 5.990873,5.765095 0.06879,3.653014 -2.111728,5.925961 -5.742517,5.985933"
         style="fill:#fdfefd;fill-opacity:1;fill-rule:evenodd;stroke:none;stroke-width:2;stroke-miterlimit:4;stroke-dasharray:none"
         id="path56"
         inkscape:connector-curvature="0" />
      <g
         style="stroke-width:5.66929146;stroke-miterlimit:4;stroke-dasharray:none"
         inkscape:export-ydpi="96.03997"
         inkscape:export-xdpi="96.03997"
         transform="matrix(0.35277777,0,0,-0.35277777,98.249696,82.441747)"
         id="g62">
        <path
           d="M 0,0 C -9.124,-0.107 -17.836,7.98 -17.854,16.573 -17.871,25.15 -9.158,33.38 -0.121,33.323 10.058,33.26 17.134,26.468 17.209,16.69 17.284,6.973 10.217,0.118 0,0"
           style="fill:#fdfefd;fill-opacity:1;fill-rule:evenodd;stroke:none;stroke-width:5.66929146;stroke-miterlimit:4;stroke-dasharray:none"
           id="path60"
           inkscape:connector-curvature="0" />
      </g>
      <g
         style="stroke-width:4;stroke-miterlimit:4;stroke-dasharray:none"
         inkscape:export-ydpi="96"
         inkscape:export-xdpi="96"
         transform="translate(0.53453906,-10.156242)"
         id="g4593">
        <text
           xml:space="preserve"
           style="font-style:normal;font-weight:normal;font-size:79.02217102px;line-height:1.25;font-family:sans-serif;letter-spacing:0px;word-spacing:0px;fill:#ffffff;fill-opacity:1;stroke:#505032;stroke-width:4;stroke-miterlimit:4;stroke-dasharray:none;stroke-opacity:1"
           x="90.651634"
           y="159.48959"
           id="text1017"
           transform="scale(0.97703432,1.0235055)"><tspan
             sodipodi:role="line"
             id="tspan1015"
             x="90.651634"
             y="159.48959"
             style="font-style:normal;font-variant:normal;font-weight:normal;font-stretch:normal;font-family:Wingdings;-inkscape-font-specification:Wingdings;fill:#ffffff;stroke:#505032;stroke-width:4;stroke-miterlimit:4;stroke-dasharray:none;stroke-opacity:1">è</tspan></text>
        <text
           xml:space="preserve"
           style="font-style:normal;font-weight:normal;font-size:79.02217102px;line-height:1.25;font-family:sans-serif;letter-spacing:0px;word-spacing:0px;fill:#ffffff;fill-opacity:1;stroke:#505032;stroke-width:4;stroke-miterlimit:4;stroke-dasharray:none;stroke-opacity:1"
           x="32.940346"
           y="139.12631"
           id="text1021"
           transform="scale(0.97703432,1.0235055)"><tspan
             sodipodi:role="line"
             id="tspan1019"
             x="32.940346"
             y="139.12631"
             style="font-style:normal;font-variant:normal;font-weight:normal;font-stretch:normal;font-family:Wingdings;-inkscape-font-specification:Wingdings;fill:#ffffff;stroke:#505032;stroke-width:4;stroke-miterlimit:4;stroke-dasharray:none;stroke-opacity:1">ç</tspan></text>
      </g>
    </g>
  </g>
</svg>
