<?xml version="1.0" encoding="UTF-8" standalone="no"?>
<svg
   xmlns:dc="http://purl.org/dc/elements/1.1/"
   xmlns:cc="http://creativecommons.org/ns#"
   xmlns:rdf="http://www.w3.org/1999/02/22-rdf-syntax-ns#"
   xmlns:svg="http://www.w3.org/2000/svg"
   xmlns="http://www.w3.org/2000/svg"
   xmlns:sodipodi="http://sodipodi.sourceforge.net/DTD/sodipodi-0.dtd"
   xmlns:inkscape="http://www.inkscape.org/namespaces/inkscape"
   width="210mm"
   height="297mm"
   viewBox="0 0 210 297"
   version="1.1"
   id="svg8"
   inkscape:version="1.0.2 (e86c870879, 2021-01-15, custom)"
   sodipodi:docname="icon.svg">
  <defs
     id="defs2">
    <clipPath
       id="clipPath26"
       clipPathUnits="userSpaceOnUse">
      <path
         inkscape:connector-curvature="0"
         id="path24"
         d="M 0,792 H 612 V 0 H 0 Z" />
    </clipPath>
    <clipPath
       id="clipPath34"
       clipPathUnits="userSpaceOnUse">
      <path
         inkscape:connector-curvature="0"
         id="path32"
         d="M 44.6401,754.36 H 556.48 V 242.52 H 44.6401 Z" />
    </clipPath>
  </defs>
  <sodipodi:namedview
     id="base"
     pagecolor="#ffffff"
     bordercolor="#666666"
     borderopacity="1.0"
     inkscape:pageopacity="0.0"
     inkscape:pageshadow="2"
     inkscape:zoom="0.69999999"
     inkscape:cx="721.71956"
     inkscape:cy="490.39022"
     inkscape:document-units="mm"
     inkscape:current-layer="layer1"
     showgrid="false"
     inkscape:window-width="1920"
     inkscape:window-height="976"
     inkscape:window-x="1912"
     inkscape:window-y="-8"
     inkscape:window-maximized="1"
     inkscape:document-rotation="0"
     showguides="false" />
  <metadata
     id="metadata5">
    <rdf:RDF>
      <cc:Work
         rdf:about="">
        <dc:format>image/svg+xml</dc:format>
        <dc:type
           rdf:resource="http://purl.org/dc/dcmitype/StillImage" />
        <dc:title />
      </cc:Work>
    </rdf:RDF>
  </metadata>
  <g
     inkscape:groupmode="layer"
     id="layer3"
     inkscape:label="Layer 0"
     transform="translate(-2.2678572,16.630953)" />
  <g
     inkscape:groupmode="layer"
     id="layer2"
     inkscape:label="Layer 1"
     style="display:inline" />
  <g
     inkscape:label="Layer 2"
     inkscape:groupmode="layer"
     id="layer1"
     style="display:inline">
    <g
       id="g30"
       transform="matrix(0.35277777,0,0,-0.35277777,-0.95357571,313.33247)"
       inkscape:export-xdpi="96"
       inkscape:export-ydpi="96" />
    <g
       id="g46"
       transform="matrix(0.35277777,0,0,-0.35277777,79.855186,150.42239)"
       inkscape:export-xdpi="96"
       inkscape:export-ydpi="96" />
    <g
       id="g58"
       transform="matrix(0.35277777,0,0,-0.35277777,103.62408,120.12587)"
       inkscape:export-xdpi="96"
       inkscape:export-ydpi="96" />
    <g
       id="g1770">
      <circle
         style="display:inline;fill:#ffffff;stroke-width:1.01487;paint-order:markers stroke fill"
         id="path1718"
         cx="75.368454"
         cy="75.973213"
         r="77.40155"
         transform="translate(-2.2678572,16.630953)" />
      <g
         id="g1714"
         transform="translate(-2.2678572,16.630953)">
        <g
           id="g1669"
           style="display:inline"
           inkscape:export-filename="C:\temp\vsts-swagger-tasks\src\images\logo_new.png"
           inkscape:export-xdpi="19.690001"
           inkscape:export-ydpi="19.690001">
          <g
             transform="matrix(1.4738383,0,0,1.4738383,-1.9214911,-20.447942)"
             id="g969"
             style="display:inline">
            <path
               d="M 32.6,67.4 H 3.044 l 0.017,0.433 0.05,0.833 0.022,0.356 0.08,0.962 0.02,0.215 0.115,1.065 a 1.16,1.16 0 0 0 0.011,0.103 l 0.15,1.144 c 0.342,2.37 0.85,4.704 1.53,6.998 l 0.01,0.03 0.353,1.14 0.02,0.063 0.325,0.968 0.086,0.244 0.304,0.837 0.143,0.378 0.27,0.7 0.213,0.52 0.226,0.54 0.3,0.658 0.175,0.4 0.368,0.787 0.122,0.252 0.443,0.895 0.07,0.137 0.54,1.025 0.115,0.2 L 34.447,74 c -0.996,-2.1 -1.616,-4.332 -1.846,-6.6 z m -28.16,13.562 0.008,0.027 0.954,-0.3 z"
               fill="#93d500"
               id="path935" />
            <path
               d="m 39.865,80.977 -20.9,20.89 0.323,0.298 0.893,0.792 0.71,0.602 0.192,0.16 0.812,0.654 0.105,0.083 0.894,0.686 a 0.23,0.23 0 0 1 0.034,0.025 l 3.895,2.633 0.14,0.085 0.767,0.453 0.47,0.268 0.446,0.25 0.814,0.44 0.113,0.06 2.303,1.118 11.247,-27.32 c -1.142,-0.61 -2.238,-1.334 -3.27,-2.18 z"
               fill="#4d5a31"
               id="path937" />
            <path
               d="m 37.697,78.904 -0.65,-0.765 -0.54,-0.697 -0.578,-0.818 -0.54,-0.843 -25.276,15.225 1.302,2.045 0.105,0.154 0.006,0.01 1.358,1.914 0.03,0.04 0.03,0.04 0.614,0.8 0.737,0.915 0.158,0.19 0.604,0.713 0.266,0.302 0.524,0.6 0.297,0.322 0.135,0.146 0.4,0.42 0.16,0.164 0.7,0.716 20.85,-20.85 -0.683,-0.73 z"
               fill="#6ba43a"
               id="path939" />
            <path
               d="m 65.334,80.966 -0.697,0.54 0.052,0.087 15.202,25.235 2.08,-1.432 c 1.47,-1.085 2.895,-2.26 4.267,-3.527 L 65.416,81.049 Z"
               fill="#4d5a31"
               id="path941" />
            <g
               fill="#93d500"
               id="g957">
              <path
                 d="m 77.97,108.03 0.034,-0.02 -0.001,-0.001 -0.033,0.02 z m -0.015,0.01 h 0.001 z"
                 id="path943" />
              <path
                 d="m 78.003,108 0.2,-0.1 -0.004,-0.007 -0.196,0.117 z m -0.043,0.035 0.01,-0.005 z"
                 id="path945" />
              <path
                 d="m 77.955,108.04 h 0.001 l -0.037,-0.062 z m 0.015,-0.01 0.034,-0.018 z m -0.02,0.01 -0.01,0.005 0.01,-0.004 z"
                 id="path947" />
              <path
                 d="m 77.95,108.04 v 10e-4 l 0.005,-0.003 h -0.001 z"
                 id="path949" />
              <path
                 d="m 77.96,108.035 -0.006,0.003 0.015,-0.01 z m 0.044,-0.023 0.198,-0.112 z m 0.198,-0.112 -0.004,-0.007 z m -0.268,0.15 h 0.002 z"
                 id="path951" />
              <path
                 d="m 77.942,108.047 -0.006,0.003 z"
                 id="path953" />
              <path
                 d="m 77.682,107.036 -14.706,-24.4 -0.874,0.487 -0.896,0.45 a 20.15,20.15 0 0 1 -8.632,1.953 20.1,20.1 0 0 1 -5.742,-0.838 l -0.945,-0.332 -0.944,-0.335 -11.226,27.265 0.082,0.03 0.086,0.033 h 0.001 l 0.022,0.01 2.155,0.825 a 49.94,49.94 0 0 0 10.12,2.422 17.83,17.83 0 0 1 0.404,0.054 l 1.222,0.133 0.198,0.017 0.98,0.082 0.333,0.02 0.858,0.05 0.526,0.02 0.682,0.024 1.218,0.015 a 49.76,49.76 0 0 0 8.233,-0.686 l 0.138,-0.02 0.864,-0.157 0.5,-0.095 0.505,-0.106 0.842,-0.185 0.152,-0.035 a 49.85,49.85 0 0 0 11.897,-4.436 l 0.001,-0.001 0.73,-0.4 1.483,-0.836 -0.024,-0.07 0.037,0.063 0.048,-0.028 0.195,-0.117 z M 39.876,49.852 40.573,49.312 40.521,49.225 25.32,24 23.235,25.436 c -1.47,1.082 -2.893,2.257 -4.262,3.522 L 39.795,49.77 Z"
                 id="path955" />
            </g>
            <path
               d="m 17.53,30.334 -1.384,1.445 c -1.538,1.665 -2.944,3.4 -4.212,5.22 l -0.182,0.26 -0.423,0.625 -0.43,0.656 -0.156,0.24 a 49.48,49.48 0 0 0 -7.7,24.627 l -0.027,1 -0.017,1 h 29.488 l 0.048,-1 0.055,-1 a 20.01,20.01 0 0 1 4.447,-10.74 c 0.2,-0.256 0.447,-0.496 0.672,-0.743 0.225,-0.247 0.432,-0.504 0.67,-0.742 z m 60.843,-7.32 -0.122,-0.073 -0.783,-0.465 -0.457,-0.26 -0.46,-0.256 -0.8,-0.432 -0.126,-0.066 c -1.73,-0.904 -3.505,-1.7 -5.318,-2.4 l -0.14,-0.054 -1.2,-0.433 c -3.22,-1.125 -6.552,-1.914 -9.936,-2.358 l -0.415,-0.056 -0.415,-0.046 -0.8,-0.087 -0.224,-0.02 -0.953,-0.08 -1.2,-0.073 -0.434,-0.017 v 29.56 c 1.517,0.157 3.02,0.48 4.478,0.975 L 80.83,24.63 a 48.97,48.97 0 0 0 -2.464,-1.614 z"
               fill="#4d5a31"
               id="path959"
               style="stroke:#ffffff;stroke-opacity:1;stroke-width:0.99992595;stroke-miterlimit:4;stroke-dasharray:none" />
            <path
               d="M 27.53,23.78 27.014,22.923 Z M 27,22.92 l 0.003,0.005 z m 24.606,-7.095 -1,0.02 c -2.086,0.084 -4.168,0.297 -6.233,0.643 l -0.136,0.023 -0.865,0.157 -0.5,0.094 -0.508,0.106 -0.84,0.184 -0.153,0.034 a 49.89,49.89 0 0 0 -11.898,4.438 l -2.47,1.394 0.003,0.005 15.22,25.27 0.874,-0.487 a 19.71,19.71 0 0 1 0.895,-0.451 20.05,20.05 0 0 1 6.601,-1.85 l 1,-0.08 1,-0.034 0.001,-29.487 c -0.334,-10e-4 -0.667,0.013 -1,0.02 z"
               fill="#6ba43a"
               id="path961" />
            <path
               d="m 102.15,62.97 -0.048,-0.795 -0.026,-0.397 -0.077,-0.934 -0.02,-0.242 -0.11,-1.043 -0.01,-0.084 -0.005,-0.04 -0.15,-1.124 c -10e-4,-0.01 -0.002,-0.025 -0.005,-0.035 a 49.56,49.56 0 0 0 -1.524,-6.972 l -0.014,-0.044 -0.328,-1.063 -0.045,-0.14 -0.32,-0.954 -0.09,-0.258 -0.3,-0.823 -0.15,-0.39 -0.265,-0.678 -0.218,-0.534 -0.22,-0.526 -0.294,-0.67 -0.17,-0.378 -0.373,-0.797 -0.116,-0.242 -0.448,-0.906 -0.065,-0.125 -0.52,-1 c -0.007,-0.01 -0.012,-0.024 -0.02,-0.035 -0.86,-1.58 -1.802,-3.108 -2.822,-4.578 L 71.632,58.93 a 20.5,20.5 0 0 1 0.974,4.477 h 29.56 z"
               fill="#4d5a31"
               id="path963" />
            <path
               d="m 72.722,65.408 -0.048,1 -0.055,1 c -0.38,3.84 -1.863,7.6 -4.446,10.74 -0.2,0.256 -0.447,0.496 -0.672,0.743 -0.225,0.247 -0.432,0.504 -0.67,0.742 l 20.85,20.85 c 0.237,-0.237 0.46,-0.482 0.69,-0.723 l 0.69,-0.723 c 1.543,-1.67 2.953,-3.42 4.224,-5.236 l 0.148,-0.214 0.458,-0.673 0.395,-0.605 0.2,-0.295 c 4.782,-7.51 7.34,-16.02 7.685,-24.607 l 0.027,-1 0.017,-1 H 72.722 Z"
               fill="#6ba43a"
               id="path965" />
            <path
               d="m 110.967,7.046 c -5.395,-5.395 -14.142,-5.395 -19.536,0 -4.304,4.303 -5.164,10.736 -2.6,15.902 L 58.74,53.04 c -5.166,-2.562 -11.6,-1.703 -15.903,2.6 a 13.82,13.82 0 0 0 0,19.537 13.82,13.82 0 0 0 19.538,-0.001 c 4.303,-4.303 5.162,-10.736 2.6,-15.903 l 30.09,-30.09 c 5.167,2.562 11.6,1.703 15.902,-2.6 5.396,-5.393 5.396,-14.14 0.001,-19.535 z"
               fill="#424143"
               id="path967"
               style="stroke:#ffffff;stroke-opacity:1;stroke-width:7.18079679;stroke-miterlimit:4;stroke-dasharray:none;stroke-linejoin:round;stroke-linecap:butt;paint-order:markers stroke fill" />
          </g>
        </g>
        <g
           style="display:inline;stroke-width:4;stroke-miterlimit:4;stroke-dasharray:none"
           inkscape:export-ydpi="19.690001"
           inkscape:export-xdpi="19.690001"
           transform="translate(1.0637057,-15.977079)"
           id="g4593"
           inkscape:export-filename="C:\temp\vsts-swagger-tasks\src\images\logo_new.png">
          <text
             xml:space="preserve"
             style="font-style:normal;font-weight:normal;font-size:79.0222px;line-height:1.25;font-family:sans-serif;letter-spacing:0px;word-spacing:0px;fill:#ffffff;fill-opacity:1;stroke:#505032;stroke-width:4;stroke-miterlimit:4;stroke-dasharray:none;stroke-opacity:1"
             x="90.651634"
             y="159.48959"
             id="text1017"
             transform="scale(0.97703432,1.0235055)"><tspan
               sodipodi:role="line"
               id="tspan1015"
               x="90.651634"
               y="159.48959"
               style="font-style:normal;font-variant:normal;font-weight:normal;font-stretch:normal;font-family:Wingdings;-inkscape-font-specification:Wingdings;fill:#ffffff;stroke:#505032;stroke-width:4;stroke-miterlimit:4;stroke-dasharray:none;stroke-opacity:1">è</tspan></text>
          <text
             xml:space="preserve"
             style="font-style:normal;font-weight:normal;font-size:79.0222px;line-height:1.25;font-family:sans-serif;letter-spacing:0px;word-spacing:0px;fill:#ffffff;fill-opacity:1;stroke:#505032;stroke-width:4;stroke-miterlimit:4;stroke-dasharray:none;stroke-opacity:1"
             x="32.940346"
             y="139.12631"
             id="text1021"
             transform="scale(0.97703432,1.0235055)"><tspan
               sodipodi:role="line"
               id="tspan1019"
               x="32.940346"
               y="139.12631"
               style="font-style:normal;font-variant:normal;font-weight:normal;font-stretch:normal;font-family:Wingdings;-inkscape-font-specification:Wingdings;fill:#ffffff;stroke:#505032;stroke-width:4;stroke-miterlimit:4;stroke-dasharray:none;stroke-opacity:1">ç</tspan></text>
        </g>
      </g>
    </g>
  </g>
</svg>
